<svg width="18" height="20" viewBox="0 0 18 20" fill="none" xmlns="http://www.w3.org/2000/svg">
<path d="M12.5296 8.82357C12.854 8.82357 13.1179 8.55967 13.1179 8.23531V5.88184H9.58829V10.5883C9.58829 10.9128 9.85214 11.1766 10.1765 11.1766C10.5009 11.1766 10.7648 10.9128 10.7648 10.5883C10.7648 10.1752 10.7648 7.61854 10.7648 7.05879H11.9413V8.23531C11.9413 8.55967 12.2052 8.82357 12.5296 8.82357Z" fill="#FF9900"/>
<path d="M14.2944 5.88185V8.23532C14.2944 9.45424 13.0835 10.3043 11.9413 9.89931V10.5884C11.9413 11.5615 11.1497 12.3531 10.1766 12.3531C9.20342 12.3531 8.41178 11.5615 8.41178 10.5884V5.88185C6.84728 5.88173 1.44289 5.88263 1.33555 5.88185C0.625128 7.17151 0.255778 8.61393 0.260171 10.1104C0.274446 14.9558 4.2096 18.9039 9.14369 18.8228C13.8586 18.7467 17.7399 14.9102 17.7399 10.0841C17.7399 8.59718 17.3705 7.16382 16.6644 5.88185C16.5615 5.88259 14.9112 5.88173 14.2944 5.88185Z" fill="#FF9900"/>
<path d="M16.1239 16.9814C15.2753 17.8577 14.2952 18.557 13.2155 19.0644L13.6347 19.4837C14.3228 20.1718 15.4424 20.1718 16.1305 19.4837C16.8186 18.7956 16.8186 17.676 16.1305 16.988L16.1239 16.9814Z" fill="#FF9900"/>
<path d="M1.58644 16.6826L1.28125 16.9878C0.593181 17.6759 0.593181 18.7955 1.28125 19.4836C1.96932 20.1717 3.08893 20.1716 3.77704 19.4836L4.38727 18.8733C3.36048 18.335 2.40938 17.605 1.58644 16.6826Z" fill="#FF9900"/>
<path d="M6.05869 0H7.23521V1.17652H6.05869V0Z" fill="#FF9900"/>
<path d="M8.41183 0H9.58836V1.17652H8.41183V0Z" fill="#FF9900"/>
<path d="M1.35261 4.70656H8.41174V2.35352H1.35261C0.702854 2.35352 0.176086 2.88028 0.176086 3.53004C0.176086 4.17979 0.702854 4.70656 1.35261 4.70656Z" fill="#FF9900"/>
<path d="M9.58829 2.35266V4.7057H13.1178V2.61L15.7628 1.09864L15.179 0.0771484L11.1969 2.35266H9.58829Z" fill="#FF9900"/>
<path d="M14.2944 4.70656H16.6474C17.2972 4.70656 17.824 4.17979 17.824 3.53004C17.824 2.88028 17.2972 2.35352 16.6474 2.35352H14.2944V4.70656Z" fill="#FF9900"/>
</svg>
